<svg width="62" height="55" viewBox="0 0 62 55" fill="none" xmlns="http://www.w3.org/2000/svg">
<path d="M43.6764 0H52.2709L61.9425 17.1875H51.0944L43.6764 0ZM23.5922 0H38.5198L45.9377 17.1875H16.0673L23.5922 0ZM0.0625 17.1875L9.84107 0H18.3286L10.9106 17.1875H0.0625ZM23.5922 48.0181L0.0625 20.625H10.9106L24.1269 47.6972C24.1982 47.8398 24.1448 47.9646 23.9665 48.0715C23.7883 48.1785 23.6635 48.1606 23.5922 48.0181ZM30.6816 54.7861L15.9603 20.625H46.0447L31.3234 54.7861C31.2521 54.9287 31.1451 55 31.0025 55C30.8599 55 30.7529 54.9287 30.6816 54.7861ZM37.8781 47.6972L51.0944 20.625H61.9425L38.4128 48.0181C38.3415 48.1606 38.2167 48.1785 38.0385 48.0715C37.8602 47.9646 37.8068 47.8398 37.8781 47.6972Z" fill="white"/>
</svg>
