<svg width="13" height="17" viewBox="0 0 13 17" fill="none" xmlns="http://www.w3.org/2000/svg">
<g id="svg">
<path id="Vector" d="M5.87556 16.546C5.33333 15.7549 4.63556 14.7549 3.78222 13.546C2.73926 12.0468 2.05111 11.0364 1.71778 10.5149C1.23926 9.7653 0.917037 9.13567 0.751111 8.62604C0.583704 8.11493 0.5 7.52604 0.5 6.85938C0.5 5.77641 0.771111 4.77641 1.31333 3.85938C1.85407 2.94234 2.58296 2.21345 3.5 1.67271C4.41704 1.13049 5.41704 0.859375 6.5 0.859375C7.58296 0.859375 8.58296 1.13049 9.5 1.67271C10.417 2.21345 11.1459 2.94234 11.6867 3.85938C12.2289 4.77641 12.5 5.77641 12.5 6.85938C12.5 7.52604 12.417 8.11493 12.2511 8.62604C12.0837 9.13567 11.7607 9.7653 11.2822 10.5149C10.9489 11.0364 10.2607 12.0468 9.21778 13.546L7.12444 16.546C6.97926 16.7549 6.77111 16.8594 6.5 16.8594C6.22889 16.8594 6.02074 16.7549 5.87556 16.546Z" fill="white"/>
</g>
</svg>
