<svg width="17" height="17" viewBox="0 0 17 17" fill="none" xmlns="http://www.w3.org/2000/svg">
<g id="svg">
<path id="Vector" d="M16.1867 6.82826C16.2504 6.76604 16.3185 6.75567 16.3911 6.79715C16.4637 6.83863 16.5 6.90086 16.5 6.98382V13.3594C16.5 13.7757 16.3541 14.1297 16.0622 14.4216C15.7704 14.7134 15.4163 14.8594 15 14.8594H2C1.5837 14.8594 1.22963 14.7134 0.937778 14.4216C0.645926 14.1297 0.5 13.7757 0.5 13.3594V6.98382C0.5 6.90086 0.536296 6.84382 0.608889 6.81271C0.681481 6.7816 0.74963 6.78678 0.813333 6.82826C1.50074 7.34975 3.10444 8.52678 5.62444 10.3594L5.93778 10.6416C6.43704 11.0164 6.83259 11.2868 7.12444 11.4527C7.62519 11.7238 8.0837 11.8594 8.5 11.8594C8.9163 11.8594 9.37481 11.7134 9.87556 11.4216C10.1881 11.2557 10.5837 10.9853 11.0622 10.6105L11.3756 10.3594C13.8333 8.589 15.437 7.41197 16.1867 6.82826ZM8.5 10.8594C8.77111 10.8594 9.10444 10.7342 9.5 10.4838C9.72963 10.3594 10.0526 10.1305 10.4689 9.79715L10.7822 9.57715C13.4059 7.68234 15.1659 6.38086 16.0622 5.67271L16.2178 5.54604C16.4059 5.40086 16.5 5.20308 16.5 4.95271V4.35938C16.5 3.94308 16.3541 3.589 16.0622 3.29715C15.7704 3.0053 15.4163 2.85938 15 2.85938H2C1.5837 2.85938 1.22963 3.0053 0.937778 3.29715C0.645926 3.589 0.5 3.94308 0.5 4.35938V4.95271C0.5 5.20308 0.594074 5.40086 0.782222 5.54604L1 5.70382C1.91704 6.41197 3.6563 7.70308 6.21778 9.57715L6.53111 9.79715C6.94741 10.1305 7.27037 10.3594 7.5 10.4838C7.89556 10.7342 8.22889 10.8594 8.5 10.8594Z" fill="white"/>
</g>
</svg>
