<svg width="17" height="17" viewBox="0 0 17 17" fill="none" xmlns="http://www.w3.org/2000/svg">
<g id="svg">
<path id="Vector" d="M15.907 1.64148L12.6559 0.89037C12.49 0.848888 12.3233 0.869629 12.1559 0.952592C11.99 1.03555 11.8759 1.16074 11.8137 1.32815L10.3137 4.82815C10.25 4.97333 10.2396 5.12444 10.2826 5.28148C10.3241 5.43704 10.407 5.57778 10.5315 5.7037L12.407 7.23481C11.8441 8.44222 11.0885 9.52519 10.1404 10.4837C9.19222 11.4422 8.10408 12.203 6.87593 12.7659L5.34482 10.8904C5.21889 10.7659 5.07815 10.683 4.92259 10.6415C4.76556 10.5985 4.61445 10.6089 4.46926 10.6726L0.969261 12.1726C0.801853 12.2348 0.676668 12.3489 0.593705 12.5148C0.510742 12.6822 0.490001 12.8489 0.531483 13.0148L1.28259 16.2659C1.30333 16.4526 1.3863 16.5985 1.53148 16.7037C1.67815 16.8074 1.83445 16.8593 2.00037 16.8593C4.62556 16.8593 7.06333 16.203 9.31371 14.8904C11.5004 13.5985 13.2396 11.8593 14.5315 9.67259C15.8441 7.42222 16.5004 4.98444 16.5004 2.35926C16.5004 2.19333 16.4485 2.03704 16.3448 1.89037C16.2396 1.74518 16.0937 1.66222 15.907 1.64148Z" fill="white"/>
</g>
</svg>
